# This file uses centimeters as units for non-parametric coordinates.

mtllib pDer.mtl
v -0.253959 -1.320271 0.423946
v -0.311360 -1.322888 0.420578
v -0.309229 -1.325510 0.508043
v -0.276649 -1.321432 0.481557
v -0.374862 -1.325864 0.426867
v -0.341901 -1.326040 0.483315
v -0.224992 -1.315335 0.299015
v -0.315181 -1.319214 0.296780
v -0.410729 -1.323742 0.307815
v -0.178498 -1.308510 0.144669
v -0.312677 -1.314860 0.160019
v -0.447607 -1.321046 0.168955
v -0.159936 -1.302987 0.002846
v -0.309570 -1.310679 0.029638
v -0.461249 -1.317449 0.036459
v -0.303171 -1.306987 -0.080288
v -0.398083 -1.310615 -0.056132
v -0.213617 -1.303158 -0.066164
v -0.314288 -1.168613 -0.010096
v -0.251563 -1.174008 -0.003397
v -0.240621 -1.175232 0.074059
v -0.252093 -1.186703 0.155952
v -0.258577 -1.199176 0.268607
v -0.272779 -1.216337 0.345493
v -0.285367 -1.230708 0.387442
v -0.313901 -1.227090 0.394624
v -0.342501 -1.233063 0.393157
v -0.354776 -1.225253 0.347340
v -0.367905 -1.210263 0.269437
v -0.389961 -1.193545 0.153276
v -0.394411 -1.181027 0.077636
v -0.375550 -1.178312 -0.002297
v -0.315468 -1.211015 0.338626
v -0.315315 -1.192747 0.262982
v -0.318435 -1.175894 0.175176
v -0.239211 -1.297371 0.404873
v -0.262991 -1.294403 0.465955
v -0.312707 -1.291657 0.498621
v -0.355785 -1.300580 0.475122
v -0.390801 -1.306653 0.414389
v -0.422523 -1.301666 0.303244
v -0.455319 -1.294727 0.171654
v -0.466907 -1.285181 0.041801
v -0.402958 -1.277946 -0.056397
v -0.305831 -1.275858 -0.084561
v -0.210057 -1.271338 -0.067232
v -0.151446 -1.268022 0.015395
v -0.166196 -1.281401 0.154993
v -0.207340 -1.292677 0.292732
v -0.182039 -1.217753 0.042863
v -0.224091 -1.215142 -0.044683
v -0.311051 -1.219332 -0.067318
v -0.401311 -1.220101 -0.039498
v -0.447095 -1.232042 0.054825
v -0.440495 -1.246324 0.173461
v -0.417206 -1.255506 0.289993
v -0.388221 -1.264054 0.385846
v -0.355655 -1.262311 0.440752
v -0.313481 -1.250028 0.457403
v -0.267265 -1.256336 0.431799
v -0.245423 -1.256491 0.375681
v -0.210851 -1.241905 0.282425
v -0.186832 -1.230277 0.164262
v -0.235505 -1.174652 -0.021547
v -0.312354 -1.169374 -0.044394
v -0.215102 -1.175801 0.066887
v -0.233869 -1.187656 0.194712
v -0.418321 -1.183799 0.071603
v -0.397188 -1.199721 0.199505
v -0.386136 -1.180189 -0.018379
v -0.317971 -1.180778 0.209324
v -0.401564 -1.182058 0.204607
v -0.312852 -1.151239 -0.049145
v -0.232895 -1.156389 -0.025950
v -0.211945 -1.157633 0.066342
v -0.230671 -1.169658 0.199620
v -0.318669 -1.162950 0.214329
v -0.387967 -1.172177 0.187185
v -0.422827 -1.165970 0.071235
v -0.389703 -1.162197 -0.022732
vt 0.530691 0.511032
vt 0.527835 0.494242
vt 0.523456 0.507172
vt 0.516984 0.497012
vt 0.536014 0.505096
vt 0.540211 0.493090
vt 0.523947 0.470447
vt 0.506786 0.474217
vt 0.542628 0.469014
vt 0.492137 0.446451
vt 0.518366 0.444410
vt 0.544498 0.441116
vt 0.512907 0.419615
vt 0.483294 0.420041
vt 0.542162 0.415295
vt 0.507582 0.398849
vt 0.526618 0.399941
vt 0.490983 0.404866
vt 0.932329 0.588314
vt 0.933256 0.578444
vt 0.914860 0.571612
vt 0.920219 0.564022
vt 0.907836 0.544199
vt 0.898669 0.547860
vt 0.890798 0.520726
vt 0.901370 0.522145
vt 0.898091 0.496043
vt 0.905984 0.503033
vt 0.916031 0.481901
vt 0.919085 0.491870
vt 0.937719 0.480319
vt 0.935691 0.490745
vt 0.949719 0.502203
vt 0.955673 0.491844
vt 0.959352 0.523418
vt 0.969142 0.518557
vt 0.972602 0.548813
vt 0.962903 0.546668
vt 0.969443 0.573117
vt 0.962361 0.566133
vt 0.964206 0.585473
vt 0.959481 0.577101
vt 0.955252 0.593189
vt 0.952024 0.583351
vt 0.945423 0.593946
vt 0.943533 0.584520
vt 0.933662 0.501511
vt 0.923679 0.504464
vt 0.940765 0.513247
vt 0.944648 0.527239
vt 0.950422 0.546927
vt 0.952663 0.561169
vt 0.953255 0.569430
vt 0.948226 0.572146
vt 0.942998 0.574136
vt 0.937548 0.567281
vt 0.929969 0.554820
vt 0.919356 0.535912
vt 0.915371 0.523086
vt 0.914366 0.508968
vt 0.944311 0.562571
vt 0.939566 0.549584
vt 0.933853 0.534901
vt 0.972764 0.579134
vt 0.965430 0.592198
vt 0.957666 0.598907
vt 0.947615 0.599445
vt 0.932949 0.593900
vt 0.912459 0.575920
vt 0.893805 0.550038
vt 0.884752 0.519630
vt 0.893522 0.492297
vt 0.914287 0.476730
vt 0.938079 0.474604
vt 0.958701 0.485468
vt 0.974524 0.515623
vt 0.977770 0.551345
vt 0.949838 0.651347
vt 0.951978 0.643434
vt 0.931977 0.641947
vt 0.934929 0.637666
vt 0.917953 0.625139
vt 0.912656 0.629196
vt 0.895576 0.614823
vt 0.896949 0.605863
vt 0.874622 0.581489
vt 0.857294 0.558914
vt 0.865776 0.577754
vt 0.852662 0.562949
vt 0.967854 0.652905
vt 0.970935 0.648540
vt 0.842182 0.542419
vt 0.844183 0.537556
vt 0.884536 0.593921
vt 0.878194 0.600401
vt 0.953332 0.638849
vt 0.937482 0.633770
vt 0.937482 0.633770
vt 0.921473 0.621409
vt 0.921473 0.621409
vt 0.899728 0.602235
vt 0.878460 0.579010
vt 0.861122 0.555776
vt 0.972344 0.643283
vt 0.972344 0.643283
vt 0.861122 0.555776
vt 0.848066 0.534100
vt 0.888535 0.590372
vt 0.899728 0.602235
vt 0.888535 0.590372
vt 0.881426 0.575143
vn 0.080921 -0.830476 0.551146
vn 0.047302 -0.998487 -0.028029
vn 0.446726 -0.818064 0.362226
vn 0.446726 -0.818064 0.362226
vn 0.047302 -0.998487 -0.028029
vn 0.293238 -0.954015 0.062189
vn 0.080921 -0.830476 0.551146
vn -0.278025 -0.906488 0.317776
vn 0.047302 -0.998487 -0.028029
vn 0.047302 -0.998487 -0.028029
vn -0.278025 -0.906488 0.317776
vn -0.171852 -0.982354 0.073811
vn 0.047302 -0.998487 -0.028029
vn 0.043867 -0.998565 -0.030707
vn 0.293238 -0.954015 0.062189
vn 0.293238 -0.954015 0.062189
vn 0.043867 -0.998565 -0.030707
vn 0.209289 -0.977684 0.018221
vn -0.134177 -0.990805 0.017408
vn 0.043867 -0.998565 -0.030707
vn -0.171852 -0.982354 0.073811
vn -0.171852 -0.982354 0.073811
vn 0.043867 -0.998565 -0.030707
vn 0.047302 -0.998487 -0.028029
vn 0.231691 -0.972789 0.000727
vn 0.209289 -0.977684 0.018221
vn 0.043631 -0.998565 -0.031067
vn 0.043631 -0.998565 -0.031067
vn 0.209289 -0.977684 0.018221
vn 0.043867 -0.998565 -0.030707
vn -0.147551 -0.989054 -0.000773
vn 0.043631 -0.998565 -0.031067
vn -0.134177 -0.990805 0.017408
vn -0.134177 -0.990805 0.017408
vn 0.043631 -0.998565 -0.031067
vn 0.043867 -0.998565 -0.030707
vn 0.043631 -0.998565 -0.031067
vn 0.042917 -0.998530 -0.033108
vn 0.231691 -0.972789 0.000727
vn 0.231691 -0.972789 0.000727
vn 0.042917 -0.998530 -0.033108
vn 0.317254 -0.942907 -0.101378
vn 0.042917 -0.998530 -0.033108
vn 0.043631 -0.998565 -0.031067
vn -0.226319 -0.968686 -0.102118
vn -0.226319 -0.968686 -0.102118
vn 0.043631 -0.998565 -0.031067
vn -0.147551 -0.989054 -0.000773
vn 0.022346 -0.944284 -0.328374
vn 0.042917 -0.998530 -0.033108
vn -0.155433 -0.941619 -0.298655
vn -0.155433 -0.941619 -0.298655
vn 0.042917 -0.998530 -0.033108
vn -0.226319 -0.968686 -0.102118
vn 0.317254 -0.942907 -0.101378
vn 0.042917 -0.998530 -0.033108
vn 0.189384 -0.936247 -0.295930
vn 0.189384 -0.936247 -0.295930
vn 0.042917 -0.998530 -0.033108
vn 0.022346 -0.944284 -0.328374
vn -0.928958 -0.016759 0.369806
vn -0.799704 0.509713 0.317279
vn -0.963173 -0.036048 0.266457
vn -0.963173 -0.036048 0.266457
vn -0.799704 0.509713 0.317279
vn -0.809820 0.531550 0.248286
vn -0.814786 0.554180 0.170316
vn -0.985359 0.069719 0.155588
vn -0.809820 0.531550 0.248286
vn -0.809820 0.531550 0.248286
vn -0.985359 0.069719 0.155588
vn -0.963173 -0.036048 0.266457
vn -0.971482 0.159370 -0.175569
vn -0.985359 0.069719 0.155588
vn -0.840331 0.537680 -0.068881
vn -0.840331 0.537680 -0.068881
vn -0.985359 0.069719 0.155588
vn -0.814786 0.554180 0.170316
vn -0.611867 0.120476 -0.781731
vn -0.971482 0.159370 -0.175569
vn -0.596424 0.489850 -0.635865
vn -0.596424 0.489850 -0.635865
vn -0.971482 0.159370 -0.175569
vn -0.840331 0.537680 -0.068881
vn -0.045150 0.160608 -0.985985
vn -0.611867 0.120476 -0.781731
vn -0.042341 0.507243 -0.860762
vn -0.042341 0.507243 -0.860762
vn -0.611867 0.120476 -0.781731
vn -0.596424 0.489850 -0.635865
vn 0.507144 0.262137 -0.821030
vn -0.045150 0.160608 -0.985985
vn 0.470894 0.601410 -0.645419
vn 0.470894 0.601410 -0.645419
vn -0.045150 0.160608 -0.985985
vn -0.042341 0.507243 -0.860762
vn 0.757163 0.652513 -0.030510
vn 0.956325 0.255840 -0.141379
vn 0.470894 0.601410 -0.645419
vn 0.470894 0.601410 -0.645419
vn 0.956325 0.255840 -0.141379
vn 0.507144 0.262137 -0.821030
vn 0.770873 0.617755 0.155350
vn 0.985133 0.038591 0.167400
vn 0.757163 0.652513 -0.030510
vn 0.757163 0.652513 -0.030510
vn 0.985133 0.038591 0.167400
vn 0.956325 0.255840 -0.141379
vn 0.945185 -0.141373 0.294346
vn 0.985133 0.038591 0.167400
vn 0.825478 0.482805 0.292379
vn 0.825478 0.482805 0.292379
vn 0.985133 0.038591 0.167400
vn 0.770873 0.617755 0.155350
vn 0.958164 0.008996 0.286080
vn 0.945185 -0.141373 0.294346
vn 0.804395 0.498088 0.323815
vn 0.804395 0.498088 0.323815
vn 0.945185 -0.141373 0.294346
vn 0.825478 0.482805 0.292379
vn 0.746038 0.324440 0.581520
vn 0.958164 0.008996 0.286080
vn 0.611447 0.673696 0.415051
vn 0.611447 0.673696 0.415051
vn 0.958164 0.008996 0.286080
vn 0.804395 0.498088 0.323815
vn 0.012322 0.547888 0.836461
vn 0.746038 0.324440 0.581520
vn 0.004889 0.827044 0.562116
vn 0.004889 0.827044 0.562116
vn 0.746038 0.324440 0.581520
vn 0.611447 0.673696 0.415051
vn -0.716630 0.268187 0.643830
vn -0.611502 0.636883 0.469515
vn -0.928958 -0.016759 0.369806
vn -0.928958 -0.016759 0.369806
vn -0.611502 0.636883 0.469515
vn -0.799704 0.509713 0.317279
vn -0.611502 0.636883 0.469515
vn -0.716630 0.268187 0.643830
vn 0.004889 0.827044 0.562116
vn 0.004889 0.827044 0.562116
vn -0.716630 0.268187 0.643830
vn 0.012322 0.547888 0.836461
vn 0.470894 0.601410 -0.645419
vn -0.042341 0.507243 -0.860762
vn 0.549784 0.591526 -0.589775
vn 0.549784 0.591526 -0.589775
vn -0.042341 0.507243 -0.860762
vn -0.018665 0.352639 -0.935573
vn 0.742466 0.667773 0.053134
vn 0.757163 0.652513 -0.030510
vn 0.549784 0.591526 -0.589775
vn 0.549784 0.591526 -0.589775
vn 0.757163 0.652513 -0.030510
vn 0.470894 0.601410 -0.645419
vn 0.670714 0.717922 0.186359
vn 0.770873 0.617755 0.155350
vn 0.742466 0.667773 0.053134
vn 0.742466 0.667773 0.053134
vn 0.770873 0.617755 0.155350
vn 0.757163 0.652513 -0.030510
vn 0.825478 0.482805 0.292379
vn 0.770873 0.617755 0.155350
vn 0.410620 0.888810 0.203491
vn 0.410620 0.888810 0.203491
vn 0.770873 0.617755 0.155350
vn 0.670714 0.717922 0.186359
vn 0.804395 0.498088 0.323815
vn 0.825478 0.482805 0.292379
vn 0.425329 0.844806 0.324652
vn 0.425329 0.844806 0.324652
vn 0.825478 0.482805 0.292379
vn 0.410620 0.888810 0.203491
vn 0.611447 0.673696 0.415051
vn 0.804395 0.498088 0.323815
vn 0.374179 0.861816 0.342439
vn 0.374179 0.861816 0.342439
vn 0.804395 0.498088 0.323815
vn 0.425329 0.844806 0.324652
vn 0.004889 0.827044 0.562116
vn 0.611447 0.673696 0.415051
vn -0.017708 0.941152 0.337521
vn -0.017708 0.941152 0.337521
vn 0.611447 0.673696 0.415051
vn 0.374179 0.861816 0.342439
vn -0.418764 0.845462 0.331409
vn -0.611502 0.636883 0.469515
vn -0.017708 0.941152 0.337521
vn -0.017708 0.941152 0.337521
vn -0.611502 0.636883 0.469515
vn 0.004889 0.827044 0.562116
vn -0.487206 0.835661 0.253576
vn -0.799704 0.509713 0.317279
vn -0.418764 0.845462 0.331409
vn -0.418764 0.845462 0.331409
vn -0.799704 0.509713 0.317279
vn -0.611502 0.636883 0.469515
vn -0.489070 0.845565 0.214081
vn -0.809820 0.531550 0.248286
vn -0.487206 0.835661 0.253576
vn -0.487206 0.835661 0.253576
vn -0.809820 0.531550 0.248286
vn -0.799704 0.509713 0.317279
vn -0.732209 0.651005 0.200157
vn -0.814786 0.554180 0.170316
vn -0.489070 0.845565 0.214081
vn -0.489070 0.845565 0.214081
vn -0.814786 0.554180 0.170316
vn -0.809820 0.531550 0.248286
vn -0.865013 0.501561 -0.013785
vn -0.840331 0.537680 -0.068881
vn -0.732209 0.651005 0.200157
vn -0.732209 0.651005 0.200157
vn -0.840331 0.537680 -0.068881
vn -0.814786 0.554180 0.170316
vn -0.018665 0.352639 -0.935573
vn -0.042341 0.507243 -0.860762
vn -0.572101 0.614159 -0.543607
vn -0.572101 0.614159 -0.543607
vn -0.042341 0.507243 -0.860762
vn -0.596424 0.489850 -0.635865
vn -0.596424 0.489850 -0.635865
vn -0.840331 0.537680 -0.068881
vn -0.572101 0.614159 -0.543607
vn -0.572101 0.614159 -0.543607
vn -0.840331 0.537680 -0.068881
vn -0.865013 0.501561 -0.013785
vn 0.425329 0.844806 0.324652
vn -0.104564 0.961926 0.252517
vn 0.374179 0.861816 0.342439
vn 0.374179 0.861816 0.342439
vn -0.104564 0.961926 0.252517
vn -0.017708 0.941152 0.337521
vn -0.418764 0.845462 0.331409
vn -0.017708 0.941152 0.337521
vn -0.487206 0.835661 0.253576
vn -0.487206 0.835661 0.253576
vn -0.017708 0.941152 0.337521
vn -0.104564 0.961926 0.252517
vn -0.094772 0.973355 0.208801
vn -0.489070 0.845565 0.214081
vn -0.104564 0.961926 0.252517
vn -0.104564 0.961926 0.252517
vn -0.489070 0.845565 0.214081
vn -0.487206 0.835661 0.253576
vn -0.094772 0.973355 0.208801
vn -0.104564 0.961926 0.252517
vn 0.410620 0.888810 0.203491
vn 0.410620 0.888810 0.203491
vn -0.104564 0.961926 0.252517
vn 0.425329 0.844806 0.324652
vn -0.732209 0.651005 0.200157
vn -0.489070 0.845565 0.214081
vn -0.082541 0.978098 0.191079
vn -0.082541 0.978098 0.191079
vn -0.489070 0.845565 0.214081
vn -0.094772 0.973355 0.208801
vn 0.670714 0.717922 0.186359
vn -0.082541 0.978098 0.191079
vn 0.410620 0.888810 0.203491
vn 0.410620 0.888810 0.203491
vn -0.082541 0.978098 0.191079
vn -0.094772 0.973355 0.208801
vn 0.958164 0.008996 0.286080
vn 0.746038 0.324440 0.581520
vn 0.293238 -0.954015 0.062189
vn 0.293238 -0.954015 0.062189
vn 0.746038 0.324440 0.581520
vn 0.446726 -0.818064 0.362226
vn 0.746038 0.324440 0.581520
vn 0.012322 0.547888 0.836461
vn 0.446726 -0.818064 0.362226
vn 0.446726 -0.818064 0.362226
vn 0.012322 0.547888 0.836461
vn 0.080921 -0.830476 0.551146
vn -0.716630 0.268187 0.643830
vn -0.278025 -0.906488 0.317776
vn 0.012322 0.547888 0.836461
vn 0.012322 0.547888 0.836461
vn -0.278025 -0.906488 0.317776
vn 0.080921 -0.830476 0.551146
vn -0.928958 -0.016759 0.369806
vn -0.171852 -0.982354 0.073811
vn -0.716630 0.268187 0.643830
vn -0.716630 0.268187 0.643830
vn -0.171852 -0.982354 0.073811
vn -0.278025 -0.906488 0.317776
vn -0.171852 -0.982354 0.073811
vn -0.928958 -0.016759 0.369806
vn -0.134177 -0.990805 0.017408
vn -0.134177 -0.990805 0.017408
vn -0.928958 -0.016759 0.369806
vn -0.963173 -0.036048 0.266457
vn -0.134177 -0.990805 0.017408
vn -0.963173 -0.036048 0.266457
vn -0.147551 -0.989054 -0.000773
vn -0.147551 -0.989054 -0.000773
vn -0.963173 -0.036048 0.266457
vn -0.985359 0.069719 0.155588
vn -0.985359 0.069719 0.155588
vn -0.971482 0.159370 -0.175569
vn -0.147551 -0.989054 -0.000773
vn -0.147551 -0.989054 -0.000773
vn -0.971482 0.159370 -0.175569
vn -0.226319 -0.968686 -0.102118
vn -0.155433 -0.941619 -0.298655
vn -0.226319 -0.968686 -0.102118
vn -0.611867 0.120476 -0.781731
vn -0.611867 0.120476 -0.781731
vn -0.226319 -0.968686 -0.102118
vn -0.971482 0.159370 -0.175569
vn 0.022346 -0.944284 -0.328374
vn -0.155433 -0.941619 -0.298655
vn -0.045150 0.160608 -0.985985
vn -0.045150 0.160608 -0.985985
vn -0.155433 -0.941619 -0.298655
vn -0.611867 0.120476 -0.781731
vn 0.507144 0.262137 -0.821030
vn 0.189384 -0.936247 -0.295930
vn -0.045150 0.160608 -0.985985
vn -0.045150 0.160608 -0.985985
vn 0.189384 -0.936247 -0.295930
vn 0.022346 -0.944284 -0.328374
vn 0.189384 -0.936247 -0.295930
vn 0.507144 0.262137 -0.821030
vn 0.317254 -0.942907 -0.101378
vn 0.317254 -0.942907 -0.101378
vn 0.507144 0.262137 -0.821030
vn 0.956325 0.255840 -0.141379
vn 0.317254 -0.942907 -0.101378
vn 0.956325 0.255840 -0.141379
vn 0.231691 -0.972789 0.000727
vn 0.231691 -0.972789 0.000727
vn 0.956325 0.255840 -0.141379
vn 0.985133 0.038591 0.167400
vn 0.985133 0.038591 0.167400
vn 0.945185 -0.141373 0.294346
vn 0.231691 -0.972789 0.000727
vn 0.231691 -0.972789 0.000727
vn 0.945185 -0.141373 0.294346
vn 0.209289 -0.977684 0.018221
vn 0.293238 -0.954015 0.062189
vn 0.209289 -0.977684 0.018221
vn 0.958164 0.008996 0.286080
vn 0.958164 0.008996 0.286080
vn 0.209289 -0.977684 0.018221
vn 0.945185 -0.141373 0.294346
vn -0.018665 0.352639 -0.935573
vn 0.019435 -0.823555 -0.566903
vn 0.549784 0.591526 -0.589775
vn 0.549784 0.591526 -0.589775
vn 0.019435 -0.823555 -0.566903
vn 0.509462 -0.737145 -0.443921
vn 0.509462 -0.737145 -0.443921
vn 0.673389 -0.737871 -0.045755
vn 0.549784 0.591526 -0.589775
vn 0.549784 0.591526 -0.589775
vn 0.673389 -0.737871 -0.045755
vn 0.742466 0.667773 0.053134
vn 0.742466 0.667773 0.053134
vn 0.673389 -0.737871 -0.045755
vn 0.670714 0.717922 0.186359
vn 0.670714 0.717922 0.186359
vn 0.673389 -0.737871 -0.045755
vn 0.458941 -0.834801 0.304107
vn -0.333528 -0.902418 0.272766
vn -0.667299 -0.739867 -0.085490
vn -0.732209 0.651005 0.200157
vn -0.732209 0.651005 0.200157
vn -0.667299 -0.739867 -0.085490
vn -0.865013 0.501561 -0.013785
vn -0.572101 0.614159 -0.543607
vn -0.465881 -0.746513 -0.475051
vn -0.018665 0.352639 -0.935573
vn -0.018665 0.352639 -0.935573
vn -0.465881 -0.746513 -0.475051
vn 0.019435 -0.823555 -0.566903
vn -0.865013 0.501561 -0.013785
vn -0.667299 -0.739867 -0.085490
vn -0.572101 0.614159 -0.543607
vn -0.572101 0.614159 -0.543607
vn -0.667299 -0.739867 -0.085490
vn -0.465881 -0.746513 -0.475051
vn 0.067923 -0.898973 0.432706
vn -0.333528 -0.902418 0.272766
vn -0.082541 0.978098 0.191079
vn -0.082541 0.978098 0.191079
vn -0.333528 -0.902418 0.272766
vn -0.732209 0.651005 0.200157
vn 0.458941 -0.834801 0.304107
vn 0.067923 -0.898973 0.432706
vn 0.670714 0.717922 0.186359
vn 0.670714 0.717922 0.186359
vn 0.067923 -0.898973 0.432706
vn -0.082541 0.978098 0.191079
vn -0.028080 0.486824 -0.873049
vn 0.655553 0.461916 -0.597398
vn 0.019435 -0.823555 -0.566903
vn 0.019435 -0.823555 -0.566903
vn 0.655553 0.461916 -0.597398
vn 0.509462 -0.737145 -0.443921
vn 0.655553 0.461916 -0.597398
vn 0.923594 0.383356 0.003604
vn 0.509462 -0.737145 -0.443921
vn 0.509462 -0.737145 -0.443921
vn 0.923594 0.383356 0.003604
vn 0.673389 -0.737871 -0.045755
vn 0.673389 -0.737871 -0.045755
vn 0.923594 0.383356 0.003604
vn 0.458941 -0.834801 0.304107
vn 0.458941 -0.834801 0.304107
vn 0.923594 0.383356 0.003604
vn 0.741513 0.371200 0.558900
vn -0.333528 -0.902418 0.272766
vn -0.762727 0.273282 0.586144
vn -0.667299 -0.739867 -0.085490
vn -0.667299 -0.739867 -0.085490
vn -0.762727 0.273282 0.586144
vn -0.958762 0.282086 -0.034677
vn -0.465881 -0.746513 -0.475051
vn -0.693916 0.360238 -0.623466
vn 0.019435 -0.823555 -0.566903
vn 0.019435 -0.823555 -0.566903
vn -0.693916 0.360238 -0.623466
vn -0.028080 0.486824 -0.873049
vn -0.667299 -0.739867 -0.085490
vn -0.958762 0.282086 -0.034677
vn -0.465881 -0.746513 -0.475051
vn -0.465881 -0.746513 -0.475051
vn -0.958762 0.282086 -0.034677
vn -0.693916 0.360238 -0.623466
vn -0.005254 0.401120 0.916010
vn -0.762727 0.273282 0.586144
vn 0.067923 -0.898973 0.432706
vn 0.067923 -0.898973 0.432706
vn -0.762727 0.273282 0.586144
vn -0.333528 -0.902418 0.272766
vn 0.458941 -0.834801 0.304107
vn 0.741513 0.371200 0.558900
vn 0.067923 -0.898973 0.432706
vn 0.067923 -0.898973 0.432706
vn 0.741513 0.371200 0.558900
vn -0.005254 0.401120 0.916010
vn -0.762727 0.273282 0.586144
vn -0.222353 0.967247 0.122445
vn -0.958762 0.282086 -0.034677
vn -0.005254 0.401120 0.916010
vn -0.222353 0.967247 0.122445
vn -0.762727 0.273282 0.586144
s off
g polySurface65 polySurface54 polySurface30 kaioh:legs01
usemtl lambert2SG
f 3/1/1 2/2/2 4/3/3
f 4/3/4 2/2/5 1/4/6
f 3/1/7 6/5/8 2/2/9
f 2/2/10 6/5/11 5/6/12
f 2/2/13 8/7/14 1/4/15
f 1/4/16 8/7/17 7/8/18
f 9/9/19 8/7/20 5/6/21
f 5/6/22 8/7/23 2/2/24
f 10/10/25 7/8/26 11/11/27
f 11/11/28 7/8/29 8/7/30
f 12/12/31 11/11/32 9/9/33
f 9/9/34 11/11/35 8/7/36
f 11/11/37 14/13/38 10/10/39
f 10/10/40 14/13/41 13/14/42
f 14/13/43 11/11/44 15/15/45
f 15/15/46 11/11/47 12/12/48
f 16/16/49 14/13/50 17/17/51
f 17/17/52 14/13/53 15/15/54
f 13/14/55 14/13/56 18/18/57
f 18/18/58 14/13/59 16/16/60
f 40/19/61 57/20/62 41/21/63
f 41/21/64 57/20/65 56/22/66
f 55/23/67 42/24/68 56/22/69
f 56/22/70 42/24/71 41/21/72
f 43/25/73 42/24/74 54/26/75
f 54/26/76 42/24/77 55/23/78
f 44/27/79 43/25/80 53/28/81
f 53/28/82 43/25/83 54/26/84
f 45/29/85 44/27/86 52/30/87
f 52/30/88 44/27/89 53/28/90
f 46/31/91 45/29/92 51/32/93
f 51/32/94 45/29/95 52/30/96
f 50/33/97 47/34/98 51/32/99
f 51/32/100 47/34/101 46/31/102
f 63/35/103 48/36/104 50/33/105
f 50/33/106 48/36/107 47/34/108
f 49/37/109 48/36/110 62/38/111
f 62/38/112 48/36/113 63/35/114
f 36/39/115 49/37/116 61/40/117
f 61/40/118 49/37/119 62/38/120
f 37/41/121 36/39/122 60/42/123
f 60/42/124 36/39/125 61/40/126
f 38/43/127 37/41/128 59/44/129
f 59/44/130 37/41/131 60/42/132
f 39/45/133 58/46/134 40/19/135
f 40/19/136 58/46/137 57/20/138
f 58/46/139 39/45/140 59/44/141
f 59/44/142 39/45/143 38/43/144
f 51/32/145 52/30/146 20/47/147
f 20/47/148 52/30/149 19/48/150
f 21/49/151 50/33/152 20/47/153
f 20/47/154 50/33/155 51/32/156
f 22/50/157 63/35/158 21/49/159
f 21/49/160 63/35/161 50/33/162
f 62/38/163 63/35/164 23/51/165
f 23/51/166 63/35/167 22/50/168
f 61/40/169 62/38/170 24/52/171
f 24/52/172 62/38/173 23/51/174
f 60/42/175 61/40/176 25/53/177
f 25/53/178 61/40/179 24/52/180
f 59/44/181 60/42/182 26/54/183
f 26/54/184 60/42/185 25/53/186
f 27/55/187 58/46/188 26/54/189
f 26/54/190 58/46/191 59/44/192
f 28/56/193 57/20/194 27/55/195
f 27/55/196 57/20/197 58/46/198
f 29/57/199 56/22/200 28/56/201
f 28/56/202 56/22/203 57/20/204
f 30/58/205 55/23/206 29/57/207
f 29/57/208 55/23/209 56/22/210
f 31/59/211 54/26/212 30/58/213
f 30/58/214 54/26/215 55/23/216
f 19/48/217 52/30/218 32/60/219
f 32/60/220 52/30/221 53/28/222
f 53/28/223 54/26/224 32/60/225
f 32/60/226 54/26/227 31/59/228
f 24/52/229 33/61/230 25/53/231
f 25/53/232 33/61/233 26/54/234
f 27/55/235 26/54/236 28/56/237
f 28/56/238 26/54/239 33/61/240
f 34/62/241 29/57/242 33/61/243
f 33/61/244 29/57/245 28/56/246
f 34/62/247 33/61/248 23/51/249
f 23/51/250 33/61/251 24/52/252
f 30/58/253 29/57/254 35/63/255
f 35/63/256 29/57/257 34/62/258
f 22/50/259 35/63/260 23/51/261
f 23/51/262 35/63/263 34/62/264
f 36/39/265 37/41/266 1/64/267
f 1/64/268 37/41/269 4/65/270
f 37/41/271 38/43/272 4/65/273
f 4/65/274 38/43/275 3/66/276
f 39/45/277 6/67/278 38/43/279
f 38/43/280 6/67/281 3/66/282
f 40/19/283 5/68/284 39/45/285
f 39/45/286 5/68/287 6/67/288
f 5/68/289 40/19/290 9/69/291
f 9/69/292 40/19/293 41/21/294
f 9/69/295 41/21/296 12/70/297
f 12/70/298 41/21/299 42/24/300
f 42/24/301 43/25/302 12/70/303
f 12/70/304 43/25/305 15/71/306
f 17/72/307 15/71/308 44/27/309
f 44/27/310 15/71/311 43/25/312
f 16/73/313 17/72/314 45/29/315
f 45/29/316 17/72/317 44/27/318
f 46/31/319 18/74/320 45/29/321
f 45/29/322 18/74/323 16/73/324
f 18/74/325 46/31/326 13/75/327
f 13/75/328 46/31/329 47/34/330
f 13/75/331 47/34/332 10/76/333
f 10/76/334 47/34/335 48/36/336
f 48/36/337 49/37/338 10/76/339
f 10/76/340 49/37/341 7/77/342
f 1/64/343 7/77/344 36/39/345
f 36/39/346 7/77/347 49/37/348
f 19/78/349 65/79/350 20/80/351
f 20/80/352 65/79/353 64/81/354
f 64/81/355 66/82/356 20/80/357
f 20/80/358 66/82/359 21/83/360
f 21/83/361 66/82/362 22/84/363
f 22/84/364 66/82/365 67/85/366
f 69/86/367 68/87/368 30/88/369
f 30/88/370 68/87/371 31/89/372
f 32/90/373 70/91/374 19/78/375
f 19/78/376 70/91/377 65/79/378
f 31/89/379 68/87/380 32/92/381
f 32/92/382 68/87/383 70/93/384
f 71/94/385 69/86/386 35/95/387
f 35/95/388 69/86/389 30/88/390
f 67/85/391 71/94/392 22/84/393
f 22/84/394 71/94/395 35/95/396
f 73/96/397 74/97/398 65/79/399
f 65/79/400 74/98/401 64/81/402
f 74/97/403 75/99/404 64/81/405
f 64/81/406 75/100/407 66/82/408
f 66/82/409 75/100/410 67/85/411
f 67/85/412 75/99/413 76/101/414
f 69/86/415 72/102/416 68/87/417
f 68/87/418 72/102/419 79/103/420
f 70/91/421 80/104/422 65/79/423
f 65/79/424 80/105/425 73/96/426
f 68/87/427 79/103/428 70/93/429
f 70/93/430 79/106/431 80/107/432
f 77/108/433 72/102/434 71/94/435
f 71/94/436 72/102/437 69/86/438
f 67/85/439 76/109/440 71/94/441
f 71/94/442 76/101/443 77/110/444
f 72/102/445 78/111/446 79/106/447
f 77/110/448 78/111/449 72/102/450
